<svg id="Layer_1" data-name="Layer 1" xmlns="http://www.w3.org/2000/svg" viewBox="0 0 145.33 163.67"><title>Mediascope</title><path d="M75.35,115.37c1.87-2.46,2.41-5.11,2.53-12.3V98.68c0-1.1,0-2.37,0-4,0-10.4-.32-13.48-2.57-15.31a4.89,4.89,0,0,0-3.18-1.11,8.42,8.42,0,0,0-2.88.58c-8.6,3.15-8.54,12.61-8.54,12.7,0,.71,0,8.81,0,9.6,0,10.39.32,13.54,2.56,15.87a6.53,6.53,0,0,0,6,1.89A8.77,8.77,0,0,0,75.35,115.37ZM73.47,97c0,.21,0,5.06,0,5.12-.06,6.59-.38,9-1.41,10.61a3.64,3.64,0,0,1-2.7,1.72,4.26,4.26,0,0,1-.59,0,2.56,2.56,0,0,1-2.13-1c-1.18-1.54-1.37-4.44-1.37-13V98.68c0-7.91.21-10.9,1.38-13a5.11,5.11,0,0,1,2.77-2.36,2.31,2.31,0,0,1,2.66.33c1.2,1.29,1.41,4.44,1.41,12.64Z" style="fill:#fce900"/><path d="M28.09,118.59a8.19,8.19,0,0,0,2.69.36,6.6,6.6,0,0,0,4.61-1.67C36.74,115.91,37,114,37,111.59c0-.07,0-.08,0-.08s0-.2,0-2.28-.47-3.6-1.45-4.44a4.83,4.83,0,0,0-4-.79s-.71.15-1.82.31a1,1,0,0,1-.82-.24c-.69-.62-.64-2.27-.61-3.07,0-.14,0-.25,0-.32,0-1.41.26-3.34,2.49-3.85a1.6,1.6,0,0,1,1.51.27c.42.44.58,1.1.58,2.43v.75l4-.75v-.35c0-1.88-.23-4-1.9-5.29a5.54,5.54,0,0,0-4.57-.79,7.31,7.31,0,0,0-4.16,2.28,8.35,8.35,0,0,0-2,5.74c0,3.21.24,5.27,1.46,6.28,1,.8,2.62.94,5.19.44a1.66,1.66,0,0,1,1.4.26c.6.51.6,1.55.6,2.76,0,1.89-.22,2.94-.72,3.51a2.5,2.5,0,0,1-1.91.76,2.1,2.1,0,0,1-1.57-.49c-.38-.39-.6-1-.6-2.7v-1l-4,.83c0,2.39.33,4.16,1.79,5.59A5.42,5.42,0,0,0,28.09,118.59Z" style="fill:#fce900"/><polygon points="106.62 71.72 106.76 71.67 122.17 66.27 122.17 60.41 101.76 67.7 101.76 118.59 122.17 118.59 122.17 113.53 106.62 113.51 106.62 102.72 106.62 94.14 106.73 94.11 120.18 91.24 120.18 85.63 106.62 88.54 106.62 71.72" style="fill:#fce900"/><polygon points="29.63 87.61 29.63 48.92 29.92 48.86 37.95 66.89 42.14 65.8 50.39 48.43 50.68 48.49 50.68 80.15 55.75 78.35 55.75 33.42 51.44 33.42 40.56 59.16 39.65 59.35 28.87 33.42 24.61 33.42 24.61 89.39 29.63 87.61" style="fill:#fce900"/><polygon points="78.15 70.42 78.15 65.84 65.92 69.91 65.92 56.55 76.34 54.12 76.34 49.37 65.92 51.43 65.92 37.96 78.15 37.96 78.15 33.42 60.73 33.42 60.73 76.59 78.15 70.42" style="fill:#fce900"/><path d="M92.83,65.21c2.64-1.31,5.57-4.1,5.57-11.59V43.45c-.25-3.94-.88-5.91-2.4-7.53h0a7.72,7.72,0,0,0-6.11-2.5H81.71V69.15Zm-6.52-27.3h.15c3.57-.06,5.38.32,6.43,1.36,1.33,1.32,1.31,3.7,1.27,7.66,0,.7,0,1.45,0,2.25,0,8.83-.3,11.24-7.64,13.74l-.2.07Z" style="fill:#fce900"/><path d="M111.7,58.53l1.57-7.79L118,49.51l1.29,6.34,3.32-1.18-4.67-21.24h-4.5L107.57,60Zm3.83-19,.42,0,0,.13,1.35,6.65-3.33.87Z" style="fill:#fce900"/><path d="M52.6,108.25c0,3.65-1.41,6.05-3.78,6.43-2.6.41-4-.66-4-12.42h0c0-3.32.42-7.65,1.35-9.32A5.08,5.08,0,0,1,49,90.6a2.34,2.34,0,0,1,2.56.27c.87.74,1,4.72,1,5.84L55.68,96l1.22-.31V93c-.05-3.06-.94-5.31-2.5-6.34A4.23,4.23,0,0,0,52,85.88a10.8,10.8,0,0,0-3.09.59C42,88.85,40.8,94,40.57,99.15V107c0,9,1.26,13,8.45,11.87,4.15-.66,7.88-2.14,7.88-12.89,0-.12,0-.85,0-1.2l-4.3.94C52.6,106.49,52.6,108.13,52.6,108.25Z" style="fill:#fce900"/><polygon points="105.69 33.42 101.76 33.42 101.76 62.05 105.69 60.66 105.69 33.42" style="fill:#fce900"/><path d="M96.15,71.87c-1.35-.94-3.38-.9-6.22.12L86.3,73.27l-4.56,1.59,0,43.71h4.61V103.48h0V98.27l.52-.1c4.87-1,11.54-2.33,11.63-10.47V83.42c0-1.57,0-4,0-4C98.47,75.45,97.71,73,96.15,71.87ZM94.22,87c0,2.33-1.73,4.26-4.4,4.9l-3.52.75V78.1l3.37-1.25a3.5,3.5,0,0,1,3.25.1c.86.6,1.3,1.75,1.31,3.43C94.23,80.38,94.22,86.58,94.22,87Z" style="fill:#fce900"/><path d="M24.58,134.51v-8.18h2.85a2.34,2.34,0,1,1,0,4.68H25.61v3.51Zm1-4.49h1.88a1.36,1.36,0,0,0,0-2.71H25.61Z" style="fill:#fce900"/><path d="M31.52,130.42a4.23,4.23,0,0,1,1.06-3.06,3.59,3.59,0,0,1,5.21,0,4.23,4.23,0,0,1,1.06,3.06,4.28,4.28,0,0,1-1.06,3.07,3.61,3.61,0,0,1-5.21,0A4.28,4.28,0,0,1,31.52,130.42Zm1.06,0a3.51,3.51,0,0,0,.72,2.37,2.42,2.42,0,0,0,1.88.83,2.38,2.38,0,0,0,1.87-.83,4.19,4.19,0,0,0,0-4.75,2.38,2.38,0,0,0-1.87-.83,2.42,2.42,0,0,0-1.88.83A3.51,3.51,0,0,0,32.58,130.42Z" style="fill:#fce900"/><path d="M40.13,126.33h1.09L42.88,133l1.74-5.8h.94L47.3,133,49,126.33H50l-2.19,8.18H46.78l-1.69-5.62-1.69,5.62H42.32Z" style="fill:#fce900"/><path d="M51.77,134.51v-8.18h4.7v1H52.8v2.35h3v1h-3v2.89h3.79v1Z" style="fill:#fce900"/><path d="M58.53,134.51v-8.18h2.72a2.13,2.13,0,0,1,2.41,2.16A2,2,0,0,1,62,130.59l2.44,3.93H63.18l-2.4-3.86H59.56v3.86Zm1-4.84h1.72c.88,0,1.32-.4,1.32-1.18s-.44-1.18-1.32-1.18H59.56Z" style="fill:#fce900"/><path d="M65.93,134.51v-8.18h4.7v1H67v2.35h3v1H67v2.89h3.79v1Z" style="fill:#fce900"/><path d="M72.69,134.51v-8.18h2.24a3.6,3.6,0,0,1,2.68,1.1,4,4,0,0,1,1.09,3,4.08,4.08,0,0,1-1.09,3,3.63,3.63,0,0,1-2.68,1.09Zm1-1h1c1.51,0,2.84-.82,2.84-3.11s-1.33-3.11-2.84-3.11h-1Z" style="fill:#fce900"/><path d="M84.54,134.51v-8.18H87.3a2,2,0,0,1,2.3,2.1,1.8,1.8,0,0,1-.92,1.6,2.1,2.1,0,0,1,1.32,2,2.3,2.3,0,0,1-2.55,2.43Zm1-4.85h1.67c.79,0,1.3-.41,1.3-1.17a1.14,1.14,0,0,0-1.3-1.18H85.57Zm0,3.87H87.3c1.09,0,1.64-.48,1.64-1.45s-.55-1.44-1.64-1.44H85.57Z" style="fill:#fce900"/><path d="M90.89,126.33H92L93.8,130l1.78-3.62h1.13L94.31,131v3.53h-1V131Z" style="fill:#fce900"/><path d="M101,127.31v-1h5.75v1h-2.36v7.2h-1v-7.2Z" style="fill:#fce900"/><path d="M109.22,134.51v-8.18h1.2l3.69,6.39v-6.39h1v8.18h-1.2l-3.69-6.37v6.37Z" style="fill:#fce900"/><path d="M118,131.86c.32,1.11.78,1.77,1.75,1.77a1.37,1.37,0,0,0,1.11-.47,1.49,1.49,0,0,0,.32-1c0-.71-.56-1.12-1.54-1.59a5,5,0,0,1-1.38-.84,1.79,1.79,0,0,1-.61-1.44,2,2,0,0,1,.6-1.48,1.92,1.92,0,0,1,1.41-.6,2.16,2.16,0,0,1,2.13,1.31l-.83.54a1.35,1.35,0,0,0-1.3-.86,1,1,0,0,0-1,1,1.08,1.08,0,0,0,.48.95c.19.13.34.23.47.3l.63.33a5.64,5.64,0,0,1,1.08.64,2,2,0,0,1,.88,1.71,2.38,2.38,0,0,1-.63,1.67,2.35,2.35,0,0,1-1.82.77,2.56,2.56,0,0,1-1.72-.62,2.82,2.82,0,0,1-.92-1.59Z" style="fill:#fce900"/></svg>