<svg width="146" height="164" viewBox="0 0 146 164" fill="none" xmlns="http://www.w3.org/2000/svg">
<path d="M1.96094 22.34V141.43L143.701 161.76V2L1.96094 22.34Z" fill="#00A696"/>
<path d="M75.3509 120.958C77.2209 118.498 77.7609 115.848 77.8809 108.658V104.268C77.8809 103.168 77.8809 101.898 77.8809 100.268C77.8809 89.8683 77.5609 86.7883 75.3109 84.9583C74.4158 84.2234 73.2889 83.83 72.1309 83.8483C71.1444 83.8713 70.1695 84.0676 69.2509 84.4283C60.6509 87.5783 60.7109 97.0383 60.7109 97.1283C60.7109 97.8383 60.7109 105.938 60.7109 106.728C60.7109 117.118 61.031 120.268 63.271 122.598C64.031 123.393 64.9795 123.983 66.0284 124.313C67.0773 124.644 68.1926 124.704 69.2709 124.488C70.4731 124.351 71.6338 123.967 72.6802 123.359C73.7265 122.752 74.6358 121.934 75.3509 120.958ZM73.471 102.588C73.471 102.798 73.471 107.648 73.471 107.708C73.411 114.298 73.0909 116.708 72.0609 118.318C71.7718 118.792 71.3781 119.193 70.9102 119.491C70.4422 119.789 69.9123 119.976 69.361 120.038C69.1645 120.052 68.9674 120.052 68.7709 120.038C68.3618 120.054 67.9549 119.971 67.5842 119.797C67.2136 119.623 66.8901 119.363 66.6409 119.038C65.4609 117.498 65.2709 114.598 65.2709 106.038V104.268C65.2709 96.3583 65.481 93.3683 66.651 91.2683C67.2534 90.1683 68.2393 89.3284 69.4209 88.9083C69.8436 88.6798 70.3269 88.5889 70.8037 88.648C71.2805 88.7072 71.7269 88.9135 72.081 89.2383C73.281 90.5283 73.4909 93.6783 73.4909 101.878L73.471 102.588Z" fill="white"/>
<path d="M28.0896 124.181C28.96 124.45 29.8692 124.572 30.7796 124.541C32.4737 124.597 34.1244 123.999 35.3896 122.871C36.7396 121.501 36.9996 119.591 36.9996 117.181C36.9996 117.111 36.9996 117.101 36.9996 117.101C36.9996 117.101 36.9996 116.901 36.9996 114.821C36.9996 112.741 36.5296 111.221 35.5496 110.381C34.9808 109.966 34.328 109.68 33.6371 109.543C32.9461 109.407 32.2336 109.423 31.5496 109.591C31.5496 109.591 30.8396 109.741 29.7296 109.901C29.5837 109.924 29.4345 109.915 29.2927 109.873C29.1509 109.832 29.0201 109.759 28.9096 109.661C28.2196 109.041 28.2696 107.391 28.2996 106.591C28.2996 106.451 28.2996 106.341 28.2996 106.271C28.2996 104.861 28.5596 102.931 30.7896 102.421C31.0438 102.336 31.3152 102.316 31.5791 102.363C31.8429 102.411 32.0907 102.523 32.2996 102.691C32.7196 103.131 32.8796 103.791 32.8796 105.121V105.871L36.8796 105.121V104.771C36.8796 102.891 36.6496 100.771 34.9796 99.4811C34.3202 99.027 33.5702 98.7213 32.7813 98.5849C31.9923 98.4485 31.1832 98.4847 30.4096 98.6911C28.808 98.9675 27.3443 99.7698 26.2496 100.971C24.8855 102.565 24.1715 104.614 24.2496 106.711C24.2496 109.921 24.4896 111.981 25.7096 112.991C26.7096 113.791 28.3296 113.931 30.8996 113.431C31.1376 113.368 31.3868 113.358 31.6289 113.403C31.871 113.448 32.1002 113.547 32.2996 113.691C32.8996 114.201 32.8996 115.241 32.8996 116.451C32.8996 118.341 32.6796 119.391 32.1796 119.961C31.9333 120.216 31.6356 120.415 31.3063 120.546C30.977 120.678 30.6237 120.737 30.2696 120.721C29.9884 120.749 29.7044 120.72 29.4346 120.636C29.1649 120.552 28.9149 120.414 28.6996 120.231C28.3196 119.841 28.0996 119.231 28.0996 117.531V116.531L24.0996 117.361C24.0996 119.751 24.4296 121.521 25.8896 122.951C26.5161 123.528 27.2698 123.95 28.0896 124.181Z" fill="white"/>
<path d="M106.62 77.31L106.76 77.26L122.17 71.86V66L101.76 73.29V124.18H122.17V119.12L106.62 119.1V108.31V99.73L106.73 99.7L120.18 96.83V91.22L106.62 94.13V77.31Z" fill="white"/>
<path d="M29.6294 93.2017V54.5117L29.9194 54.4517L37.9494 72.4817L42.1394 71.3917L50.3894 54.0217L50.6794 54.0817V85.7417L55.7494 83.9417V39.0117H51.4394L40.5594 64.7517L39.6494 64.9417L28.8694 39.0117H24.6094V94.9817L29.6294 93.2017Z" fill="white"/>
<path d="M78.1505 76.0117V71.4317L65.9205 75.5017V62.1417L76.3405 59.7117V54.9617L65.9205 57.0217V43.5517H78.1505V39.0117H60.7305V82.1817L78.1505 76.0117Z" fill="white"/>
<path d="M92.8309 70.801C95.4709 69.491 98.4009 66.701 98.4009 59.211V49.041C98.1509 45.101 97.5209 43.131 96.0009 41.511C95.2307 40.6685 94.2832 40.0073 93.2266 39.575C92.1701 39.1427 91.0309 38.9501 89.8909 39.011H81.7109V74.741L92.8309 70.801ZM86.3109 43.501H86.4609C90.0309 43.441 91.8409 43.821 92.8909 44.861C94.2209 46.181 94.2009 48.561 94.1609 52.521C94.1609 53.221 94.1609 53.971 94.1609 54.771C94.1609 63.601 93.8609 66.011 86.5209 68.511L86.3209 68.581L86.3109 43.501Z" fill="white"/>
<path d="M111.7 64.1195L113.27 56.3295L118 55.0995L119.29 61.4395L122.61 60.2595L117.94 39.0195H113.44L107.57 65.5895L111.7 64.1195ZM115.53 45.1195H115.95V45.2495L117.3 51.8995L113.97 52.7695L115.53 45.1195Z" fill="white"/>
<path d="M52.6003 113.839C52.6003 117.489 51.1903 119.889 48.8203 120.269C46.2203 120.679 44.8203 119.609 44.8203 107.849C44.8203 104.529 45.2403 100.199 46.1703 98.5288C46.7889 97.4232 47.7982 96.5886 49.0003 96.1888C49.4067 95.9786 49.8658 95.8921 50.3208 95.9401C50.7758 95.9881 51.2067 96.1684 51.5603 96.4588C52.4303 97.1988 52.5603 101.179 52.5603 102.299L55.6803 101.589L56.9003 101.279V98.5888C56.8503 95.5288 55.9603 93.2788 54.4003 92.2488C53.6983 91.7506 52.861 91.4785 52.0003 91.4688C50.947 91.5135 49.906 91.7123 48.9103 92.0588C42.0003 94.4388 40.8003 99.5888 40.5703 104.739V112.589C40.5703 121.589 41.8303 125.589 49.0203 124.459C53.1703 123.799 56.9003 122.319 56.9003 111.569C56.9003 111.449 56.9003 110.719 56.9003 110.369L52.6003 111.309C52.6003 112.079 52.6003 113.719 52.6003 113.839Z" fill="white"/>
<path d="M105.69 39.0117H101.76V67.6417L105.69 66.2517V39.0117Z" fill="white"/>
<path d="M96.1502 77.4614C94.8002 76.5214 92.7702 76.5614 89.9302 77.5814L86.3002 78.8614L81.7402 80.4514V124.161H86.3502V109.071V103.861L86.8702 103.761C91.7402 102.761 98.4102 101.431 98.5002 93.2914V89.0114C98.5002 87.4414 98.5002 85.0114 98.5002 85.0114C98.4702 81.0414 97.7102 78.5914 96.1502 77.4614ZM94.2202 92.5914C94.2202 94.9214 92.4902 96.8514 89.8202 97.4914L86.3002 98.2414V83.6914L89.6702 82.4414C90.1796 82.1939 90.7415 82.0736 91.3076 82.0911C91.8736 82.1085 92.427 82.263 92.9202 82.5414C93.7802 83.1414 94.2202 84.2914 94.2302 85.9714C94.2302 85.9714 94.2202 92.1714 94.2202 92.5914Z" fill="white"/>
</svg>
